<?xml version="1.0" encoding="UTF-8"?>
<svg width="920px" height="106px" viewBox="0 0 920 106" version="1.1" xmlns="http://www.w3.org/2000/svg" xmlns:xlink="http://www.w3.org/1999/xlink">
    <title>hbd-text-logo</title>
    <g id="Page-1" stroke="none" stroke-width="1" fill="none" fill-rule="evenodd">
        <g id="Artboard" transform="translate(-799.000000, -602.000000)">
            <g id="hbd-text-logo" transform="translate(799.320258, 602.516382)">
                <g id="HUSKY" transform="translate(0.000000, 0.281548)" fill="#F0ECE0" fill-rule="nonzero">
                    <polygon id="Path" points="43.9215504 64.052261 30.4072272 64.052261 30.4072272 102.202069 0 102.202069 0 2.5339356 30.4072272 2.5339356 30.4072272 36.601292 43.9215504 36.601292 43.9215504 2.5339356 74.3287776 2.5339356 74.3287776 102.202069 43.9215504 102.202069"></polygon>
                    <path d="M123.458973,105.017553 C116.889511,105.017553 111.305467,103.961747 106.706844,101.850134 C102.10822,99.7385207 98.3307787,96.8057249 95.3745205,93.0517462 C92.4182623,89.2977675 90.2597246,84.8868426 88.8989073,79.8189714 C87.53809,74.7511002 86.8576814,69.2609064 86.8576814,63.34839 L86.8576814,2.5339356 L117.687231,2.5339356 L117.687231,60.6736802 C117.687231,65.460003 118.086091,69.0966698 118.883812,71.5836807 C119.681532,74.0706916 121.394285,75.314197 124.02207,75.314197 C126.649855,75.314197 128.38607,74.0706916 129.230716,71.5836807 C130.075361,69.0966698 130.497683,65.460003 130.497683,60.6736802 L130.497683,2.5339356 L160.904911,2.5339356 L160.904911,63.34839 C160.904911,69.2609064 160.177577,74.7511002 158.722911,79.8189714 C157.268244,84.8868426 155.015857,89.2977675 151.965749,93.0517462 C148.915641,96.8057249 145.044351,99.7385207 140.351877,101.850134 C135.659404,103.961747 130.028436,105.017553 123.458973,105.017553 Z" id="Path"></path>
                    <path d="M196.380009,104.736005 C193.001428,104.736005 189.787084,104.430994 186.736976,103.820973 C183.686869,103.210951 180.871385,102.389768 178.290524,101.357424 C175.709664,100.32508 173.339965,99.1519615 171.181427,97.838069 C169.022889,96.5241765 167.192825,95.2102839 165.691233,93.8963914 L180.33175,70.6686484 C182.490288,72.4517883 184.859987,73.906455 187.440847,75.0326486 C190.021708,76.1588422 192.579106,76.721939 195.113041,76.721939 C196.708482,76.721939 198.045837,76.3230788 199.125106,75.5253583 C200.204375,74.7276378 200.744009,73.5779819 200.744009,72.0763904 C200.744009,70.2932505 199.969751,68.7916591 198.421235,67.571616 C196.872719,66.3515729 194.456095,64.9438309 191.171364,63.34839 C188.35588,62.0344975 185.68117,60.5563684 183.147234,58.9140027 C180.613299,57.271637 178.360911,55.2773359 176.390073,52.9310992 C174.419234,50.5848625 172.847255,47.8397656 171.674137,44.6958085 C170.501019,41.5518514 169.914459,37.8682598 169.914459,33.6450338 C169.914459,27.5448185 170.993728,22.3596354 173.152266,18.0894847 C175.310804,13.819334 178.055901,10.3469037 181.387557,7.6721939 C184.719213,4.9974841 188.426267,3.05010767 192.508719,1.8300646 C196.59117,0.610021533 200.603235,0 204.544913,0 C210.551278,0 215.92416,0.938494667 220.663559,2.815484 C225.402957,4.69247333 229.368097,7.13255947 232.558978,10.1357424 L217.496139,33.081937 C215.900698,31.4864961 214.023709,30.1491412 211.865171,29.0698723 C209.706633,27.9906034 207.641945,27.450969 205.671106,27.450969 C204.169515,27.450969 202.808697,27.8263669 201.588654,28.5771626 C200.368611,29.3279583 199.75859,30.6418509 199.75859,32.5188402 C199.75859,34.0204317 200.392074,35.2404747 201.659042,36.1789694 C202.926009,37.1174641 205.389558,38.4782813 209.049687,40.2614212 C211.114375,41.2937653 213.413687,42.5841955 215.947623,44.1327117 C218.481558,45.6812279 220.87472,47.6520667 223.127107,50.0452281 C225.379494,52.4383895 227.279946,55.3242606 228.828462,58.7028414 C230.376978,62.0814222 231.151236,66.0700245 231.151236,70.6686484 C231.151236,76.6750143 230.165817,81.8367349 228.194978,86.1538104 C226.224139,90.4708859 223.596354,93.9902409 220.311623,96.7118754 C217.026892,99.4335099 213.296375,101.451273 209.120074,102.765166 C204.943773,104.079059 200.697084,104.736005 196.380009,104.736005 Z" id="Path"></path>
                    <polygon id="Path" points="271.83498 58.8436156 271.271883 58.8436156 271.271883 102.202069 240.723882 102.202069 240.723882 2.5339356 271.271883 2.5339356 271.271883 41.8099374 271.975754 41.8099374 285.771626 2.5339356 319.557434 2.5339356 299.145175 47.7224538 320.683628 102.202069 285.771626 102.202069"></polygon>
                    <polygon id="Path" points="373.192404 102.202069 343.066725 102.202069 343.066725 69.4016806 317.586595 2.5339356 350.668532 2.5339356 358.129565 39.2760018 358.551887 39.2760018 366.435243 2.5339356 398.954083 2.5339356 373.192404 69.4016806"></polygon>
                </g>
                <g id="DESIGN" transform="translate(497.405400, 0.000000)" fill="#F0ECE0" fill-rule="nonzero">
                    <path d="M0,102.483618 L0,2.815484 L32.0965176,2.815484 C40.2614212,2.815484 47.1828194,4.05898943 52.8607121,6.5460003 C58.5386048,9.03301117 63.1372287,12.4819791 66.6565837,16.892904 C70.1759387,21.3038289 72.7333367,26.5828614 74.3287776,32.7300015 C75.9242185,38.8771416 76.721939,45.6108408 76.721939,52.9310992 C76.721939,60.1575081 75.9242185,66.7973579 74.3287776,72.8506485 C72.7333367,78.9039391 70.1759387,84.1125845 66.6565837,88.4765847 C63.1372287,92.8405849 58.5386048,96.2660904 52.8607121,98.7531013 C47.1828194,101.240112 40.2614212,102.483618 32.0965176,102.483618 L0,102.483618 Z M45.8923892,52.9310992 C45.8923892,45.5169913 44.7192709,39.7687115 42.3730342,35.6862597 C40.0267975,31.6038079 36.7889909,29.562582 32.6596144,29.562582 L30.8295498,29.562582 L30.8295498,75.7365196 L32.6596144,75.7365196 C36.7889909,75.7365196 40.0267975,73.6952937 42.3730342,69.6128419 C44.7192709,65.5303901 45.8923892,59.9698092 45.8923892,52.9310992 Z" id="Shape"></path>
                    <polygon id="Path" points="87.4207782 2.815484 140.633426 2.815484 140.633426 29.7033562 116.561038 29.7033562 116.561038 39.6983244 138.381039 39.6983244 138.381039 64.6153578 116.561038 64.6153578 116.561038 75.1734228 142.46349 75.1734228 142.46349 102.483618 87.4207782 102.483618"></polygon>
                    <path d="M176.108524,105.017553 C172.729943,105.017553 169.515599,104.712542 166.465491,104.102521 C163.415384,103.492499 160.5999,102.671317 158.019039,101.638972 C155.438179,100.606628 153.06848,99.4335099 150.909942,98.1196174 C148.751405,96.8057249 146.92134,95.4918323 145.419749,94.1779398 L160.060265,70.9501968 C162.218803,72.7333367 164.588502,74.1880034 167.169363,75.314197 C169.750223,76.4403906 172.307621,77.0034874 174.841556,77.0034874 C176.436997,77.0034874 177.774352,76.6046272 178.853621,75.8069067 C179.93289,75.0091862 180.472524,73.8595303 180.472524,72.3579388 C180.472524,70.5747989 179.698266,69.0732075 178.14975,67.8531644 C176.601234,66.6331213 174.18461,65.2253793 170.899879,63.6299384 C168.084395,62.3160459 165.409685,60.8379168 162.875749,59.1955511 C160.341814,57.5531854 158.089427,55.5588843 156.118588,53.2126476 C154.147749,50.8664109 152.57577,48.121314 151.402652,44.9773569 C150.229534,41.8333998 149.642975,38.1498082 149.642975,33.9265822 C149.642975,27.8263669 150.722243,22.6411838 152.880781,18.3710331 C155.039319,14.1008824 157.784416,10.6284521 161.116072,7.9537423 C164.447728,5.2790325 168.154782,3.33165607 172.237234,2.111613 C176.319685,0.891569933 180.33175,0.2815484 184.273428,0.2815484 C190.279794,0.2815484 195.652676,1.22004307 200.392074,3.0970324 C205.131472,4.97402173 209.096612,7.41410787 212.287494,10.4172908 L197.224654,33.3634854 C195.629213,31.7680445 193.752224,30.4306896 191.593686,29.3514207 C189.435148,28.2721518 187.37046,27.7325174 185.399621,27.7325174 C183.89803,27.7325174 182.537213,28.1079153 181.31717,28.858711 C180.097127,29.6095067 179.487105,30.9233993 179.487105,32.8003886 C179.487105,34.3019801 180.120589,35.5220231 181.387557,36.4605178 C182.654524,37.3990125 185.118073,38.7598297 188.778202,40.5429696 C190.84289,41.5753137 193.142202,42.8657439 195.676138,44.4142601 C198.210074,45.9627763 200.603235,47.9336151 202.855622,50.3267765 C205.108009,52.7199379 207.008461,55.605809 208.556977,58.9843898 C210.105493,62.3629706 210.879752,66.3515729 210.879752,70.9501968 C210.879752,76.9565627 209.894332,82.1182833 207.923493,86.4353588 C205.952655,90.7524343 203.32487,94.2717893 200.040138,96.9934238 C196.755407,99.7150583 193.024891,101.732822 188.848589,103.046714 C184.672288,104.360607 180.4256,105.017553 176.108524,105.017553 Z" id="Path"></path>
                    <polygon id="Path" points="220.452397 2.815484 251.422721 2.815484 251.422721 102.483618 220.452397 102.483618"></polygon>
                    <path d="M304.916917,104.876779 C298.253605,104.876779 292.270702,103.609811 286.968207,101.075876 C281.665712,98.54194 277.1844,94.9756603 273.524271,90.3770364 C269.864141,85.7784125 267.048657,80.2882187 265.077819,73.906455 C263.10698,67.5246913 262.12156,60.4390565 262.12156,52.6495508 C262.12156,44.6723461 263.130442,37.4459372 265.148206,30.970324 C267.165969,24.4947108 270.004916,18.9575923 273.665045,14.3589684 C277.325174,9.76034453 281.689174,6.21752717 286.757045,3.7305163 C291.824917,1.24350543 297.362035,-1.42108547e-14 303.368401,-1.42108547e-14 C307.310079,-1.42108547e-14 310.876358,0.3519355 314.06724,1.0558065 C317.258122,1.7596775 320.120531,2.6747098 322.654466,3.8009034 C325.188402,4.927097 327.370402,6.21752717 329.200467,7.6721939 C331.030531,9.12686063 332.60251,10.6049897 333.916402,12.1065812 L318.008918,35.0527758 C316.601176,33.3634854 314.95881,32.0261305 313.081821,31.0407111 C311.204831,30.0552917 308.858595,29.562582 306.043111,29.562582 C303.509175,29.562582 301.350637,30.1960659 299.567498,31.4630337 C297.784358,32.7300015 296.282766,34.4192919 295.062723,36.5309049 C293.84268,38.6425179 292.95111,41.082604 292.388013,43.8511633 C291.824917,46.6197226 291.543368,49.5525184 291.543368,52.6495508 C291.543368,55.5588843 291.777992,58.421293 292.247239,61.236777 C292.716487,64.052261 293.467282,66.5627342 294.499626,68.7681967 C295.531971,70.9736592 296.892788,72.756799 298.582078,74.1176163 C300.271369,75.4784336 302.336057,76.1588422 304.776143,76.1588422 C306.465433,76.1588422 307.9201,75.8303691 309.140143,75.1734228 L309.140143,66.5861966 L300.412143,66.5861966 L300.412143,39.9798728 L334.761048,39.9798728 L334.761048,96.8526496 C331.382467,99.2927357 327.206166,101.240112 322.232144,102.694779 C317.258122,104.149446 311.48638,104.876779 304.916917,104.876779 Z" id="Path"></path>
                    <polygon id="Path" points="373.755501 55.4650348 373.333178 55.4650348 374.459372 102.483618 347.289951 102.483618 347.289951 2.815484 379.808792 2.815484 395.434728 51.382583 395.997825 51.382583 395.153179 2.815484 421.337181 2.815484 421.337181 102.483618 389.662986 102.483618"></polygon>
                </g>
                <g id="By" transform="translate(405.679742, 21.483618)">
                    <circle id="Oval" fill="#D69FFF" cx="37" cy="37" r="37"></circle>
                    <g id="x" transform="translate(18.000000, 21.000000)" fill="#6A4630" fill-rule="nonzero">
                        <polygon id="Path" points="26.3863081 33 19.0464548 20.9647059 11.5207824 33 0 33 12.2640587 15.7235294 1.11491443 0 12.5427873 0 19.1393643 10.7411765 25.6430318 0 36.9779951 0 25.9217604 15.7235294 38 33"></polygon>
                    </g>
                </g>
            </g>
        </g>
    </g>
</svg>