<?xml version="1.0" standalone="no"?>
<!DOCTYPE svg PUBLIC "-//W3C//DTD SVG 20010904//EN"
 "http://www.w3.org/TR/2001/REC-SVG-20010904/DTD/svg10.dtd">
<svg version="1.0" xmlns="http://www.w3.org/2000/svg"
 width="707.000000pt" height="707.000000pt" viewBox="0 0 707.000000 707.000000"
 preserveAspectRatio="xMidYMid meet">
<metadata>
Created by potrace 1.14, written by Peter Selinger 2001-2017
</metadata>
<g transform="translate(0.000000,707.000000) scale(0.100000,-0.100000)"
fill="#000000" stroke="none">
<path d="M2132 7054 c-295 -76 -509 -450 -606 -1059 -15 -90 -13 -81 -41 -316
-6 -55 -17 -306 -19 -442 l-2 -122 -51 -76 c-57 -85 -88 -138 -177 -304 -26
-48 -64 -94 -130 -160 -74 -74 -135 -117 -251 -180 -38 -20 -76 -42 -84 -48
-27 -22 1 -115 74 -247 8 -14 41 -53 74 -87 33 -35 54 -63 48 -64 -7 0 -21 -3
-32 -6 -11 -3 -99 -7 -195 -9 -183 -4 -196 -7 -204 -51 -16 -80 112 -305 237
-420 56 -51 165 -123 185 -123 6 0 13 -4 17 -10 7 -12 -53 -28 -139 -35 -107
-10 -139 -41 -107 -106 24 -51 280 -301 431 -422 319 -255 652 -452 1005 -594
61 -24 120 -48 131 -53 22 -8 21 -9 -16 -87 -37 -77 -104 -253 -95 -253 2 0
-2 -18 -10 -40 -8 -22 -14 -41 -13 -43 1 -3 -13 -104 -18 -132 -2 -11 -4 -56
-5 -100 -1 -72 -4 -86 -34 -135 -111 -188 -144 -376 -94 -546 12 -43 26 -81
30 -84 3 -3 14 -21 24 -40 26 -51 114 -133 200 -189 41 -26 72 -51 67 -56 -4
-5 -2 -5 5 -2 6 4 42 -6 80 -22 37 -15 77 -32 88 -36 11 -5 25 -9 30 -10 36
-5 94 -27 98 -38 4 -9 6 -9 6 1 1 8 6 10 14 5 13 -8 18 -10 43 -12 9 -1 12 -6
8 -14 -6 -8 -3 -8 9 1 9 8 22 10 29 6 7 -5 22 -10 33 -11 10 -2 23 -9 27 -16
6 -9 8 -9 8 1 0 6 7 12 16 12 8 0 13 -4 9 -9 -3 -5 0 -13 6 -17 8 -5 9 -3 4 6
-6 10 0 12 31 7 21 -4 44 -7 51 -7 12 0 29 -37 25 -53 -1 -5 2 -6 7 -3 5 4 13
0 18 -7 12 -21 84 -64 122 -72 32 -7 81 -13 124 -14 12 -1 16 -5 11 -13 -6
-10 -5 -10 7 -2 8 7 25 11 39 10 14 -1 42 1 63 5 24 4 37 3 37 -5 0 -8 2 -8 8
0 7 12 89 39 105 36 4 -1 6 4 5 10 -2 7 3 12 10 10 6 -1 12 4 12 10 1 7 10 2
20 -11 11 -13 20 -20 20 -16 0 4 11 0 25 -9 13 -9 33 -16 45 -16 11 0 20 -4
20 -8 0 -4 51 -7 114 -7 73 0 112 -4 108 -10 -3 -5 2 -4 11 4 14 11 20 11 33
1 12 -11 15 -11 12 -1 -2 8 8 15 22 17 45 8 118 48 137 77 10 15 23 25 29 23
7 -3 9 5 7 19 -4 20 0 23 42 29 26 4 55 9 65 11 9 2 34 6 55 9 20 4 42 9 47
12 5 3 16 0 25 -8 10 -8 14 -8 10 -1 -8 13 27 28 43 18 5 -3 10 -2 10 3 0 6
24 16 53 23 28 7 54 14 57 14 6 2 34 13 85 35 103 43 118 47 205 55 30 3 63 8
73 11 10 3 17 0 17 -8 0 -9 3 -9 8 -2 11 17 42 25 42 11 0 -8 3 -9 8 -1 4 6
21 14 37 18 37 8 59 14 63 16 1 2 5 3 10 4 17 4 59 19 87 31 37 16 63 25 71
24 4 0 10 3 13 8 3 5 28 24 54 42 228 155 298 421 201 759 -48 168 -160 395
-207 422 -20 11 -30 12 -51 2 -31 -14 -41 -37 -49 -112 -14 -120 -57 -211
-143 -296 -35 -35 -68 -64 -73 -64 -5 0 -21 19 -34 43 -21 36 -26 58 -28 124
-4 187 -55 398 -134 553 -20 40 -23 54 -14 77 8 24 23 35 92 62 352 140 714
351 1009 587 151 121 184 151 303 269 159 159 178 189 159 240 -9 23 -40 33
-126 41 -40 3 -86 12 -103 19 -27 12 -28 13 -10 20 39 16 158 97 202 138 129
120 251 356 220 424 -14 32 -32 35 -206 38 -154 2 -206 6 -218 18 -3 4 15 28
41 53 55 56 126 169 152 241 26 76 16 95 -76 145 -119 64 -172 101 -243 168
-84 78 -121 129 -187 255 -29 55 -59 107 -66 116 -8 8 -14 19 -14 23 0 3 -24
42 -54 85 l-54 79 -2 158 c-1 88 -3 182 -5 209 -8 128 -16 232 -19 255 -2 14
-7 54 -10 90 -4 36 -11 88 -16 115 -5 28 -12 67 -14 87 -3 21 -10 57 -15 80
-5 24 -12 59 -15 78 -8 54 -73 273 -102 348 -68 171 -144 291 -243 385 -144
136 -298 174 -462 115 -248 -91 -540 -440 -786 -941 l-38 -79 -100 7 c-124 7
-338 7 -471 -1 l-100 -6 -47 94 c-52 106 -119 231 -127 238 -3 3 -14 21 -24
40 -33 60 -145 224 -202 296 -103 129 -221 242 -313 299 -110 68 -246 95 -349
69z"/>
<path d="M1995 711 c-3 -5 -2 -12 3 -15 5 -3 9 1 9 9 0 17 -3 19 -12 6z"/>
<path d="M2035 650 c3 -5 8 -10 11 -10 2 0 4 5 4 10 0 6 -5 10 -11 10 -5 0 -7
-4 -4 -10z"/>
<path d="M1833 625 c0 -8 4 -12 9 -9 4 3 8 9 8 15 0 5 -4 9 -8 9 -5 0 -9 -7
-9 -15z"/>
<path d="M1790 591 c0 -6 4 -13 10 -16 6 -3 7 1 4 9 -7 18 -14 21 -14 7z"/>
<path d="M2010 569 c0 -5 5 -7 10 -4 6 3 10 8 10 11 0 2 -4 4 -10 4 -5 0 -10
-5 -10 -11z"/>
<path d="M5275 550 c-3 -5 -1 -10 4 -10 6 0 11 5 11 10 0 6 -2 10 -4 10 -3 0
-8 -4 -11 -10z"/>
<path d="M5310 551 c0 -6 4 -13 10 -16 6 -3 7 1 4 9 -7 18 -14 21 -14 7z"/>
<path d="M1850 529 c0 -5 5 -7 10 -4 6 3 10 8 10 11 0 2 -4 4 -10 4 -5 0 -10
-5 -10 -11z"/>
<path d="M1810 490 c0 -5 5 -10 11 -10 5 0 7 5 4 10 -3 6 -8 10 -11 10 -2 0
-4 -4 -4 -10z"/>
<path d="M1970 490 c0 -5 5 -10 11 -10 5 0 7 5 4 10 -3 6 -8 10 -11 10 -2 0
-4 -4 -4 -10z"/>
<path d="M5295 490 c3 -5 8 -10 11 -10 2 0 4 5 4 10 0 6 -5 10 -11 10 -5 0 -7
-4 -4 -10z"/>
<path d="M1870 446 c0 -2 8 -10 18 -17 15 -13 16 -12 3 4 -13 16 -21 21 -21
13z"/>
<path d="M2269 433 c-13 -16 -12 -17 4 -4 16 13 21 21 13 21 -2 0 -10 -8 -17
-17z"/>
<path d="M5130 410 c0 -5 5 -10 11 -10 5 0 7 5 4 10 -3 6 -8 10 -11 10 -2 0
-4 -4 -4 -10z"/>
<path d="M1835 399 c-4 -6 -5 -12 -2 -15 2 -3 7 2 10 11 7 17 1 20 -8 4z"/>
<path d="M4946 388 c3 -4 9 -8 15 -8 5 0 9 4 9 8 0 5 -7 9 -15 9 -8 0 -12 -4
-9 -9z"/>
<path d="M1895 370 c-3 -5 -1 -10 4 -10 6 0 11 5 11 10 0 6 -2 10 -4 10 -3 0
-8 -4 -11 -10z"/>
<path d="M2255 370 c-3 -5 -1 -10 4 -10 6 0 11 5 11 10 0 6 -2 10 -4 10 -3 0
-8 -4 -11 -10z"/>
<path d="M1945 350 c-3 -6 1 -7 9 -4 18 7 21 14 7 14 -6 0 -13 -4 -16 -10z"/>
<path d="M4730 329 c0 -5 5 -7 10 -4 6 3 10 8 10 11 0 2 -4 4 -10 4 -5 0 -10
-5 -10 -11z"/>
<path d="M2319 303 c-13 -16 -12 -17 4 -4 9 7 17 15 17 17 0 8 -8 3 -21 -13z"/>
<path d="M5120 310 c-9 -6 -10 -10 -3 -10 6 0 15 5 18 10 8 12 4 12 -15 0z"/>
<path d="M1975 290 c3 -5 8 -10 11 -10 2 0 4 5 4 10 0 6 -5 10 -11 10 -5 0 -7
-4 -4 -10z"/>
<path d="M2415 290 c3 -5 8 -10 11 -10 2 0 4 5 4 10 0 6 -5 10 -11 10 -5 0 -7
-4 -4 -10z"/>
<path d="M4914 279 c-3 -6 -2 -15 3 -20 5 -5 9 -1 9 11 0 23 -2 24 -12 9z"/>
<path d="M4519 263 c-13 -16 -12 -17 4 -4 9 7 17 15 17 17 0 8 -8 3 -21 -13z"/>
<path d="M4999 263 c-13 -16 -12 -17 4 -4 9 7 17 15 17 17 0 8 -8 3 -21 -13z"/>
<path d="M5075 271 c-3 -5 -2 -12 3 -15 5 -3 9 1 9 9 0 17 -3 19 -12 6z"/>
<path d="M2330 250 c0 -5 5 -10 11 -10 5 0 7 5 4 10 -3 6 -8 10 -11 10 -2 0
-4 -4 -4 -10z"/>
<path d="M4210 249 c0 -5 5 -7 10 -4 6 3 10 8 10 11 0 2 -4 4 -10 4 -5 0 -10
-5 -10 -11z"/>
<path d="M4255 250 c-3 -5 -1 -10 4 -10 6 0 11 5 11 10 0 6 -2 10 -4 10 -3 0
-8 -4 -11 -10z"/>
<path d="M4455 250 c-3 -5 -1 -10 4 -10 6 0 11 5 11 10 0 6 -2 10 -4 10 -3 0
-8 -4 -11 -10z"/>
<path d="M4615 250 c-3 -5 -1 -10 4 -10 6 0 11 5 11 10 0 6 -2 10 -4 10 -3 0
-8 -4 -11 -10z"/>
<path d="M4690 250 c0 -5 5 -10 11 -10 5 0 7 5 4 10 -3 6 -8 10 -11 10 -2 0
-4 -4 -4 -10z"/>
<path d="M2030 246 c0 -2 8 -10 18 -17 15 -13 16 -12 3 4 -13 16 -21 21 -21
13z"/>
<path d="M2070 236 c0 -2 7 -7 16 -10 8 -3 12 -2 9 4 -6 10 -25 14 -25 6z"/>
<path d="M2146 232 c-2 -4 4 -8 14 -8 10 0 16 4 14 8 -3 4 -9 8 -14 8 -5 0
-11 -4 -14 -8z"/>
<path d="M4986 228 c3 -5 10 -6 15 -3 13 9 11 12 -6 12 -8 0 -12 -4 -9 -9z"/>
<path d="M2615 210 c-3 -5 -1 -10 4 -10 6 0 11 5 11 10 0 6 -2 10 -4 10 -3 0
-8 -4 -11 -10z"/>
<path d="M2829 193 c-13 -16 -12 -17 4 -4 16 13 21 21 13 21 -2 0 -10 -8 -17
-17z"/>
<path d="M4350 206 c0 -2 8 -10 18 -17 15 -13 16 -12 3 4 -13 16 -21 21 -21
13z"/>
<path d="M4514 196 c1 -8 5 -18 8 -22 4 -3 5 1 4 10 -1 8 -5 18 -8 22 -4 3 -5
-1 -4 -10z"/>
<path d="M4799 183 c-13 -16 -12 -17 4 -4 16 13 21 21 13 21 -2 0 -10 -8 -17
-17z"/>
<path d="M2890 169 c0 -5 5 -7 10 -4 6 3 10 8 10 11 0 2 -4 4 -10 4 -5 0 -10
-5 -10 -11z"/>
<path d="M4575 170 c-3 -5 -1 -10 4 -10 6 0 11 5 11 10 0 6 -2 10 -4 10 -3 0
-8 -4 -11 -10z"/>
<path d="M2479 143 c-13 -16 -12 -17 4 -4 16 13 21 21 13 21 -2 0 -10 -8 -17
-17z"/>
<path d="M2415 130 c3 -5 8 -10 11 -10 2 0 4 5 4 10 0 6 -5 10 -11 10 -5 0 -7
-4 -4 -10z"/>
<path d="M4175 130 c-3 -5 -1 -10 4 -10 6 0 11 5 11 10 0 6 -2 10 -4 10 -3 0
-8 -4 -11 -10z"/>
<path d="M4515 119 c-4 -6 -5 -12 -2 -15 2 -3 7 2 10 11 7 17 1 20 -8 4z"/>
<path d="M4265 110 c-3 -6 1 -7 9 -4 18 7 21 14 7 14 -6 0 -13 -4 -16 -10z"/>
<path d="M2735 90 c3 -5 8 -10 11 -10 2 0 4 5 4 10 0 6 -5 10 -11 10 -5 0 -7
-4 -4 -10z"/>
<path d="M2850 89 c0 -5 5 -7 10 -4 6 3 10 8 10 11 0 2 -4 4 -10 4 -5 0 -10
-5 -10 -11z"/>
<path d="M3175 90 c-3 -5 -1 -10 4 -10 6 0 11 5 11 10 0 6 -2 10 -4 10 -3 0
-8 -4 -11 -10z"/>
<path d="M3335 90 c3 -5 8 -10 11 -10 2 0 4 5 4 10 0 6 -5 10 -11 10 -5 0 -7
-4 -4 -10z"/>
<path d="M3610 89 c0 -5 5 -7 10 -4 6 3 10 8 10 11 0 2 -4 4 -10 4 -5 0 -10
-5 -10 -11z"/>
<path d="M4330 89 c0 -5 5 -7 10 -4 6 3 10 8 10 11 0 2 -4 4 -10 4 -5 0 -10
-5 -10 -11z"/>
<path d="M2946 52 c-3 -5 1 -9 9 -9 8 0 12 4 9 9 -3 4 -7 8 -9 8 -2 0 -6 -4
-9 -8z"/>
<path d="M3230 46 c0 -2 8 -10 18 -17 15 -13 16 -12 3 4 -13 16 -21 21 -21 13z"/>
<path d="M3275 41 c-3 -5 -2 -12 3 -15 5 -3 9 1 9 9 0 17 -3 19 -12 6z"/>
<path d="M3476 37 c3 -10 9 -15 12 -12 3 3 0 11 -7 18 -10 9 -11 8 -5 -6z"/>
<path d="M3796 37 c3 -10 9 -15 12 -12 3 3 0 11 -7 18 -10 9 -11 8 -5 -6z"/>
<path d="M3916 28 c3 -5 10 -6 15 -3 13 9 11 12 -6 12 -8 0 -12 -4 -9 -9z"/>
</g>
</svg>
